<?xml version="1.0" encoding="UTF-8" standalone="no"?>
<!-- Created with Inkscape (http://www.inkscape.org/) -->

<svg
   xmlns:dc="http://purl.org/dc/elements/1.1/"
   xmlns:cc="http://creativecommons.org/ns#"
   xmlns:rdf="http://www.w3.org/1999/02/22-rdf-syntax-ns#"
   xmlns:svg="http://www.w3.org/2000/svg"
   xmlns="http://www.w3.org/2000/svg"
   xmlns:sodipodi="http://sodipodi.sourceforge.net/DTD/sodipodi-0.dtd"
   xmlns:inkscape="http://www.inkscape.org/namespaces/inkscape"
   width="249.23434"
   height="41.054688"
   id="svg2"
   version="1.1"
   inkscape:version="0.48.5 r10040"
   sodipodi:docname="drawing.svg">
  <defs
     id="defs4" />
  <sodipodi:namedview
     id="base"
     pagecolor="#ffffff"
     bordercolor="#666666"
     borderopacity="1.0"
     inkscape:pageopacity="0"
     inkscape:pageshadow="2"
     inkscape:zoom="3.3991572"
     inkscape:cx="0.68312403"
     inkscape:cy="-1.7783724"
     inkscape:document-units="px"
     inkscape:current-layer="layer1"
     showgrid="false"
     inkscape:window-width="1920"
     inkscape:window-height="1127"
     inkscape:window-x="0"
     inkscape:window-y="25"
     inkscape:window-maximized="1"
     showguides="true"
     inkscape:guide-bbox="true"
     fit-margin-top="2"
     fit-margin-left="2"
     fit-margin-right="2"
     fit-margin-bottom="2" />
  <metadata
     id="metadata7">
    <rdf:RDF>
      <cc:Work
         rdf:about="">
        <dc:format>image/svg+xml</dc:format>
        <dc:type
           rdf:resource="http://purl.org/dc/dcmitype/StillImage" />
        <dc:title />
      </cc:Work>
    </rdf:RDF>
  </metadata>
  <g
     inkscape:label="Layer 1"
     inkscape:groupmode="layer"
     id="layer1"
     transform="translate(-105,-73.307503)">
    <g
       style="font-size:48px;font-style:normal;font-variant:normal;font-weight:normal;font-stretch:normal;line-height:125%;letter-spacing:0px;word-spacing:0px;fill:#0000ff;fill-opacity:1;stroke:none;font-family:Roboto;-inkscape-font-specification:Roboto"
       id="text2993">
      <path
         d="m 173.64062,101.06532 c -0.37502,3.4375 -1.63283,6.17969 -3.77343,8.22656 -2.12503,2.04687 -5.07033,3.07031 -8.83594,3.07031 -3.93751,0 -7.09376,-1.34375 -9.46875,-4.03125 -2.375,-2.68749 -3.5625,-6.18749 -3.5625,-10.5 l 0,-6.023437 c 0,-4.296851 1.1875,-7.796847 3.5625,-10.5 2.37499,-2.703092 5.53124,-4.054653 9.46875,-4.054688 3.82811,3.5e-5 6.78904,0.992221 8.88281,2.976563 2.10935,1.968779 3.35154,4.765652 3.72656,8.390625 l -4.33593,0 c -0.39065,-2.593724 -1.22659,-4.546847 -2.50782,-5.859375 -1.26564,-1.328095 -3.18751,-1.992157 -5.76562,-1.992188 -2.68751,3.1e-5 -4.81251,1.039093 -6.375,3.117188 -1.54688,2.062526 -2.32032,4.687523 -2.32031,7.875 l 0,6.070312 c -1e-5,3.21876 0.77343,5.8672 2.32031,7.94531 1.56249,2.06251 3.68749,3.09376 6.375,3.09375 2.59373,10e-6 4.52342,-0.64062 5.78906,-1.92187 1.2656,-1.28125 2.09373,-3.24218 2.48438,-5.88281 l 4.33593,0"
         id="path3026"
         inkscape:connector-curvature="0" />
      <path
         d="m 177.92969,98.932503 c 0,-3.828108 0.99999,-6.929668 3,-9.304688 1.99999,-2.3906 4.76561,-3.585911 8.29687,-3.585937 3.56249,2.6e-5 6.34373,1.195337 8.34375,3.585937 2.0156,2.37502 3.02342,5.47658 3.02344,9.304688 l 0,0.5625 c -2e-5,3.843757 -1.00002,6.945317 -3,9.304687 -2.00002,2.35938 -4.77345,3.53906 -8.32031,3.53906 -3.56251,0 -6.34376,-1.17968 -8.34375,-3.53906 -2.00001,-2.35937 -3,-5.46093 -3,-9.304687 l 0,-0.5625 m 4.35937,0.5625 c 0,2.765637 0.57812,5.015637 1.73438,6.749997 1.15624,1.73438 2.90624,2.60157 5.25,2.60157 2.31248,0 4.05467,-0.86719 5.22656,-2.60157 1.17186,-1.74999 1.75779,-3.99999 1.75781,-6.749997 l 0,-0.5625 c -2e-5,-2.718735 -0.59377,-4.96092 -1.78125,-6.726563 -1.17189,-1.765603 -2.92189,-2.648415 -5.25,-2.648437 -2.31251,2.2e-5 -4.04688,0.882834 -5.20312,2.648437 -1.15626,1.765643 -1.73438,4.007828 -1.73438,6.726563 l 0,0.5625"
         id="path3028"
         inkscape:connector-curvature="0" />
      <path
         d="m 210.17969,86.510628 0.30468,3.796875 0.0703,0.02344 c 0.82811,-1.359352 1.87499,-2.414038 3.14062,-3.164062 1.28124,-0.749975 2.7578,-1.124974 4.42969,-1.125 2.76561,2.6e-5 4.88279,0.781275 6.35156,2.34375 1.46873,1.562522 2.2031,4.054707 2.20313,7.476562 l 0,16.007807 -4.35938,0 0,-15.914057 c -2e-5,-2.328107 -0.44533,-3.960917 -1.33594,-4.898437 -0.87501,-0.937479 -2.25782,-1.406228 -4.14843,-1.40625 -1.42189,2.2e-5 -2.65626,0.335959 -3.70313,1.007812 -1.03126,0.671896 -1.86719,1.609395 -2.50781,2.8125 l 0,18.398432 -4.35938,0 0,-25.359369 3.91407,0"
         id="path3030"
         inkscape:connector-curvature="0" />
      <path
         d="m 238.72656,80.346565 0,6.164063 4.875,0 0,3.304687 -4.875,0 0,15.515625 c -1e-5,1.25001 0.21093,2.125 0.63281,2.625 0.42187,0.48438 0.99999,0.72657 1.73438,0.72656 0.37499,10e-6 0.74999,-0.0234 1.125,-0.0703 0.39061,-0.0625 0.74999,-0.14062 1.07812,-0.23437 l 0.58594,3.07031 c -0.40626,0.26562 -0.97657,0.47656 -1.71094,0.63281 -0.71876,0.17187 -1.43751,0.25781 -2.15625,0.25781 -1.76563,0 -3.14844,-0.54687 -4.14843,-1.64062 -1.00001,-1.10937 -1.50001,-2.89844 -1.5,-5.36719 l 0,-15.515625 -3.63282,0 0,-3.304687 3.63282,0 0,-6.164063 4.35937,0"
         id="path3032"
         inkscape:connector-curvature="0" />
      <path
         d="m 264.39062,111.87 c -0.15626,-0.79687 -0.27345,-1.45312 -0.35156,-1.96875 -0.0781,-0.51562 -0.13283,-1.05468 -0.16406,-1.61718 -0.90627,1.1875 -2.03127,2.16406 -3.375,2.92968 -1.34376,0.75 -2.82032,1.125 -4.42969,1.125 -2.67188,0 -4.6875,-0.65625 -6.04687,-1.96875 -1.34376,-1.32812 -2.01563,-3.18749 -2.01563,-5.57812 0,-2.46874 0.96875,-4.37499 2.90625,-5.718752 1.93749,-1.343736 4.62499,-2.01561 8.0625,-2.015625 l 4.89844,0 0,-2.578125 c -2e-5,-1.546856 -0.47658,-2.74998 -1.42969,-3.609375 -0.95314,-0.874978 -2.31251,-1.312478 -4.07812,-1.3125 -1.64064,2.2e-5 -2.96876,0.390647 -3.98438,1.171875 -1.00001,0.765645 -1.50001,1.703144 -1.5,2.8125 l -4.33594,0 c 0,-1.953105 0.92969,-3.687478 2.78907,-5.203125 1.85936,-1.531225 4.28124,-2.296849 7.26562,-2.296875 2.92186,2.6e-5 5.24998,0.718775 6.98438,2.15625 1.74998,1.437522 2.62497,3.546895 2.625,6.328125 l 0,12.234377 c -3e-5,0.90625 0.0469,1.77344 0.14062,2.60156 0.0937,0.82813 0.2656,1.66406 0.51563,2.50781 l -4.47657,0 m -7.6875,-3.25781 c 1.62499,0 3.07812,-0.375 4.35938,-1.125 1.29686,-0.74999 2.23436,-1.67187 2.8125,-2.76562 l 0,-4.66407 -5.03906,0 c -2.01564,10e-6 -3.60157,0.47658 -4.75782,1.42969 -1.15625,0.93751 -1.73438,2.07032 -1.73437,3.39844 -1e-5,1.17188 0.35937,2.08594 1.07812,2.74219 0.73437,0.65625 1.82812,0.98437 3.28125,0.98437"
         id="path3034"
         inkscape:connector-curvature="0" />
      <path
         d="m 279.78906,111.87 -4.33594,0 0,-25.359372 4.33594,0 0,25.359372 m 0,-31.921872 -4.33594,0 0,-4.640625 4.33594,0 0,4.640625"
         id="path3036"
         inkscape:connector-curvature="0" />
      <path
         d="m 290.89844,86.510628 0.30468,3.796875 0.0703,0.02344 c 0.82811,-1.359352 1.87499,-2.414038 3.14062,-3.164062 1.28124,-0.749975 2.7578,-1.124974 4.42969,-1.125 2.76561,2.6e-5 4.88279,0.781275 6.35156,2.34375 1.46873,1.562522 2.2031,4.054707 2.20313,7.476562 l 0,16.007807 -4.35938,0 0,-15.914057 c -2e-5,-2.328107 -0.44533,-3.960917 -1.33594,-4.898437 -0.87501,-0.937479 -2.25782,-1.406228 -4.14843,-1.40625 -1.42189,2.2e-5 -2.65626,0.335959 -3.70313,1.007812 -1.03126,0.671896 -1.86719,1.609395 -2.50781,2.8125 l 0,18.398432 -4.35938,0 0,-25.359369 3.91407,0"
         id="path3038"
         inkscape:connector-curvature="0" />
      <path
         d="m 324.60156,112.33875 c -3.56251,0 -6.375,-1.14843 -8.4375,-3.44531 -2.0625,-2.31249 -3.09375,-5.37499 -3.09375,-9.1875 l 0,-1.054687 c 0,-3.687483 1.05469,-6.710918 3.16406,-9.070313 2.125,-2.35935 4.67968,-3.539036 7.66407,-3.539062 3.43748,2.6e-5 6.0156,1.007837 7.73437,3.023437 1.73435,2.015646 2.60154,4.773456 2.60156,8.273438 l 0,2.835937 -16.80468,0 c 0.0625,2.59376 0.70312,4.68751 1.92187,6.28125 1.23437,1.59375 2.98437,2.39063 5.25,2.39063 1.57811,0 2.93749,-0.21875 4.07813,-0.65625 1.15623,-0.4375 2.19529,-1.05469 3.11718,-1.85157 l 1.71094,2.88282 c -0.92189,0.90625 -2.10939,1.65625 -3.5625,2.25 -1.43752,0.57812 -3.21876,0.86718 -5.34375,0.86718 m -0.70312,-22.781247 c -1.64064,2.2e-5 -3.03126,0.664084 -4.17188,1.992187 -1.12501,1.312519 -1.84375,3.023455 -2.15625,5.132813 l 12.32813,0 0,-0.609375 c -2e-5,-1.890608 -0.50002,-3.445294 -1.5,-4.664063 -1.00002,-1.234353 -2.50002,-1.85154 -4.5,-1.851562"
         id="path3040"
         inkscape:connector-curvature="0" />
      <path
         d="m 351.64844,90.42469 -2.53125,-0.140625 c -1.32814,2.2e-5 -2.42189,0.304709 -3.28125,0.914063 -0.85939,0.609395 -1.52345,1.484394 -1.99219,2.625 l 0,18.046872 -4.35938,0 0,-25.359372 3.89063,0 0.42187,3.679687 0.0703,0.02344 c 0.70311,-1.312477 1.58593,-2.335914 2.64843,-3.070313 1.06249,-0.734349 2.31249,-1.101536 3.75,-1.101562 0.37499,2.6e-5 0.74218,0.03128 1.10157,0.09375 0.37498,0.0469 0.66404,0.101588 0.86718,0.164062 l -0.58593,4.125"
         id="path3042"
         inkscape:connector-curvature="0" />
    </g>
    <text
       xml:space="preserve"
       style="font-size:16px;font-style:normal;font-variant:normal;font-weight:500;font-stretch:normal;line-height:125%;letter-spacing:0px;word-spacing:0px;fill:#ff0000;fill-opacity:1;stroke:none;font-family:Inconsolata;-inkscape-font-specification:Inconsolata Medium"
       x="106.0127"
       y="342.53799"
       id="text2997"
       sodipodi:linespacing="125%"><tspan
         sodipodi:role="line"
         id="tspan2999"
         x="106.0127"
         y="342.53799" /></text>
    <g
       style="font-size:16px;font-style:normal;font-variant:normal;font-weight:500;font-stretch:normal;line-height:125%;letter-spacing:0px;word-spacing:0px;fill:#999999;fill-opacity:1;stroke:none;font-family:Inconsolata;-inkscape-font-specification:Inconsolata Medium"
       id="text3769"
       transform="translate(0,-1.9999895)">
      <path
         d="m 113.128,79.41818 c -0.672,-0.815999 -1.664,-1.248 -2.752,-1.248 -1.808,0 -3.04,1.184001 -3.04,2.56 0,0.576 0.224,1.328001 1.056,1.936 0.928,0.687999 2.368,1.024001 3.12,1.504 0.656,0.4 0.832,0.928001 0.832,1.376 0,0.863999 -0.736,1.808 -2.176,1.808 -1.088,0 -1.936,-0.544 -2.384,-1.104 -0.048,-0.064 -0.048,-0.096 -0.048,-0.16 0,-0.032 0,-0.128 -0.064,-0.16 l -0.672,1.152 c 0.784,0.847999 1.904,1.28 3.136,1.28 2.432,0 3.328,-1.632001 3.328,-2.88 0,-0.527999 -0.16,-1.216 -0.784,-1.808 -0.864,-0.815999 -2.272,-1.104 -3.184,-1.632 -0.832,-0.495999 -1.008,-1.088 -1.008,-1.488 0,-0.767999 0.656,-1.456 1.792,-1.456 0.928,0 1.648,0.416001 2.032,0.976 0.048,0.064 0.032,0.096 0.032,0.16 0,0.096 0.048,0.128 0.08,0.128 l 0.704,-0.944"
         id="path2993"
         inkscape:connector-curvature="0" />
      <path
         d="m 121.128,79.41818 c -0.672,-0.815999 -1.664,-1.248 -2.752,-1.248 -1.808,0 -3.04,1.184001 -3.04,2.56 0,0.576 0.224,1.328001 1.056,1.936 0.928,0.687999 2.368,1.024001 3.12,1.504 0.656,0.4 0.832,0.928001 0.832,1.376 0,0.863999 -0.736,1.808 -2.176,1.808 -1.088,0 -1.936,-0.544 -2.384,-1.104 -0.048,-0.064 -0.048,-0.096 -0.048,-0.16 0,-0.032 0,-0.128 -0.064,-0.16 l -0.672,1.152 c 0.784,0.847999 1.904,1.28 3.136,1.28 2.432,0 3.328,-1.632001 3.328,-2.88 0,-0.527999 -0.16,-1.216 -0.784,-1.808 -0.864,-0.815999 -2.272,-1.104 -3.184,-1.632 -0.832,-0.495999 -1.008,-1.088 -1.008,-1.488 0,-0.767999 0.656,-1.456 1.792,-1.456 0.928,0 1.648,0.416001 2.032,0.976 0.048,0.064 0.032,0.096 0.032,0.16 0,0.096 0.048,0.128 0.08,0.128 l 0.704,-0.944"
         id="path2995"
         inkscape:connector-curvature="0" />
      <path
         d="m 129.128,79.41818 c -0.672,-0.815999 -1.664,-1.248 -2.752,-1.248 -1.808,0 -3.04,1.184001 -3.04,2.56 0,0.576 0.224,1.328001 1.056,1.936 0.928,0.687999 2.368,1.024001 3.12,1.504 0.656,0.4 0.832,0.928001 0.832,1.376 0,0.863999 -0.736,1.808 -2.176,1.808 -1.088,0 -1.936,-0.544 -2.384,-1.104 -0.048,-0.064 -0.048,-0.096 -0.048,-0.16 0,-0.032 0,-0.128 -0.064,-0.16 l -0.672,1.152 c 0.784,0.847999 1.904,1.28 3.136,1.28 2.432,0 3.328,-1.632001 3.328,-2.88 0,-0.527999 -0.16,-1.216 -0.784,-1.808 -0.864,-0.815999 -2.272,-1.104 -3.184,-1.632 -0.832,-0.495999 -1.008,-1.088 -1.008,-1.488 0,-0.767999 0.656,-1.456 1.792,-1.456 0.928,0 1.648,0.416001 2.032,0.976 0.048,0.064 0.032,0.096 0.032,0.16 0,0.096 0.048,0.128 0.08,0.128 l 0.704,-0.944"
         id="path2997"
         inkscape:connector-curvature="0" />
      <path
         d="m 137.128,79.41818 c -0.672,-0.815999 -1.664,-1.248 -2.752,-1.248 -1.808,0 -3.04,1.184001 -3.04,2.56 0,0.576 0.224,1.328001 1.056,1.936 0.928,0.687999 2.368,1.024001 3.12,1.504 0.656,0.4 0.832,0.928001 0.832,1.376 0,0.863999 -0.736,1.808 -2.176,1.808 -1.088,0 -1.936,-0.544 -2.384,-1.104 -0.048,-0.064 -0.048,-0.096 -0.048,-0.16 0,-0.032 0,-0.128 -0.064,-0.16 l -0.672,1.152 c 0.784,0.847999 1.904,1.28 3.136,1.28 2.432,0 3.328,-1.632001 3.328,-2.88 0,-0.527999 -0.16,-1.216 -0.784,-1.808 -0.864,-0.815999 -2.272,-1.104 -3.184,-1.632 -0.832,-0.495999 -1.008,-1.088 -1.008,-1.488 0,-0.767999 0.656,-1.456 1.792,-1.456 0.928,0 1.648,0.416001 2.032,0.976 0.048,0.064 0.032,0.096 0.032,0.16 0,0.096 0.048,0.128 0.08,0.128 l 0.704,-0.944"
         id="path2999"
         inkscape:connector-curvature="0" />
      <path
         d="m 145.128,79.41818 c -0.672,-0.815999 -1.664,-1.248 -2.752,-1.248 -1.808,0 -3.04,1.184001 -3.04,2.56 0,0.576 0.224,1.328001 1.056,1.936 0.928,0.687999 2.368,1.024001 3.12,1.504 0.656,0.4 0.832,0.928001 0.832,1.376 0,0.863999 -0.736,1.808 -2.176,1.808 -1.088,0 -1.936,-0.544 -2.384,-1.104 -0.048,-0.064 -0.048,-0.096 -0.048,-0.16 0,-0.032 0,-0.128 -0.064,-0.16 l -0.672,1.152 c 0.784,0.847999 1.904,1.28 3.136,1.28 2.432,0 3.328,-1.632001 3.328,-2.88 0,-0.527999 -0.16,-1.216 -0.784,-1.808 -0.864,-0.815999 -2.272,-1.104 -3.184,-1.632 -0.832,-0.495999 -1.008,-1.088 -1.008,-1.488 0,-0.767999 0.656,-1.456 1.792,-1.456 0.928,0 1.648,0.416001 2.032,0.976 0.048,0.064 0.032,0.096 0.032,0.16 0,0.096 0.048,0.128 0.08,0.128 l 0.704,-0.944"
         id="path3001"
         inkscape:connector-curvature="0" />
    </g>
    <g
       style="font-size:16px;font-style:normal;font-variant:normal;font-weight:500;font-stretch:normal;line-height:125%;letter-spacing:0px;word-spacing:0px;fill:#4d4d4d;fill-opacity:1;stroke:none;font-family:Inconsolata;-inkscape-font-specification:Inconsolata Medium"
       id="text3777"
       transform="translate(0,-0.9999895)">
      <path
         d="m 114.072,95.242179 c 0,-0.927999 -0.064,-2.160001 -0.608,-3.232 -0.656,-1.279999 -1.792,-1.872 -2.88,-1.872 -1.488,0 -3.584,1.152004 -3.584,5.072 0,3.919996 2.064,5.152001 3.6,5.152001 1.072,0 2.224,-0.608002 2.88,-1.936001 0.528,-1.071999 0.592,-2.304001 0.592,-3.184 m -3.536,-4.064 c 0.704,0 1.568,0.416001 2.032,1.584 0.336,0.831999 0.384,1.792001 0.384,2.624 0,0.655999 -0.032,1.680001 -0.448,2.528 -0.464,0.975999 -1.232,1.36 -1.904,1.36 -1.12,0 -2.496,-1.040003 -2.496,-4.208 0,-2.975997 1.392,-3.888 2.432,-3.888"
         id="path3004"
         inkscape:connector-curvature="0" />
      <path
         d="m 122.072,95.242179 c 0,-0.927999 -0.064,-2.160001 -0.608,-3.232 -0.656,-1.279999 -1.792,-1.872 -2.88,-1.872 -1.488,0 -3.584,1.152004 -3.584,5.072 0,3.919996 2.064,5.152001 3.6,5.152001 1.072,0 2.224,-0.608002 2.88,-1.936001 0.528,-1.071999 0.592,-2.304001 0.592,-3.184 m -3.536,-4.064 c 0.704,0 1.568,0.416001 2.032,1.584 0.336,0.831999 0.384,1.792001 0.384,2.624 0,0.655999 -0.032,1.680001 -0.448,2.528 -0.464,0.975999 -1.232,1.36 -1.904,1.36 -1.12,0 -2.496,-1.040003 -2.496,-4.208 0,-2.975997 1.392,-3.888 2.432,-3.888"
         id="path3006"
         inkscape:connector-curvature="0" />
      <path
         d="m 130.072,95.242179 c 0,-0.927999 -0.064,-2.160001 -0.608,-3.232 -0.656,-1.279999 -1.792,-1.872 -2.88,-1.872 -1.488,0 -3.584,1.152004 -3.584,5.072 0,3.919996 2.064,5.152001 3.6,5.152001 1.072,0 2.224,-0.608002 2.88,-1.936001 0.528,-1.071999 0.592,-2.304001 0.592,-3.184 m -3.536,-4.064 c 0.704,0 1.568,0.416001 2.032,1.584 0.336,0.831999 0.384,1.792001 0.384,2.624 0,0.655999 -0.032,1.680001 -0.448,2.528 -0.464,0.975999 -1.232,1.36 -1.904,1.36 -1.12,0 -2.496,-1.040003 -2.496,-4.208 0,-2.975997 1.392,-3.888 2.432,-3.888"
         id="path3008"
         inkscape:connector-curvature="0" />
      <path
         d="m 138.072,95.242179 c 0,-0.927999 -0.064,-2.160001 -0.608,-3.232 -0.656,-1.279999 -1.792,-1.872 -2.88,-1.872 -1.488,0 -3.584,1.152004 -3.584,5.072 0,3.919996 2.064,5.152001 3.6,5.152001 1.072,0 2.224,-0.608002 2.88,-1.936001 0.528,-1.071999 0.592,-2.304001 0.592,-3.184 m -3.536,-4.064 c 0.704,0 1.568,0.416001 2.032,1.584 0.336,0.831999 0.384,1.792001 0.384,2.624 0,0.655999 -0.032,1.680001 -0.448,2.528 -0.464,0.975999 -1.232,1.36 -1.904,1.36 -1.12,0 -2.496,-1.040003 -2.496,-4.208 0,-2.975997 1.392,-3.888 2.432,-3.888"
         id="path3010"
         inkscape:connector-curvature="0" />
      <path
         d="m 146.072,95.242179 c 0,-0.927999 -0.064,-2.160001 -0.608,-3.232 -0.656,-1.279999 -1.792,-1.872 -2.88,-1.872 -1.488,0 -3.584,1.152004 -3.584,5.072 0,3.919996 2.064,5.152001 3.6,5.152001 1.072,0 2.224,-0.608002 2.88,-1.936001 0.528,-1.071999 0.592,-2.304001 0.592,-3.184 m -3.536,-4.064 c 0.704,0 1.568,0.416001 2.032,1.584 0.336,0.831999 0.384,1.792001 0.384,2.624 0,0.655999 -0.032,1.680001 -0.448,2.528 -0.464,0.975999 -1.232,1.36 -1.904,1.36 -1.12,0 -2.496,-1.040003 -2.496,-4.208 0,-2.975997 1.392,-3.888 2.432,-3.888"
         id="path3012"
         inkscape:connector-curvature="0" />
    </g>
    <g
       style="font-size:16px;font-style:normal;font-variant:normal;font-weight:500;font-stretch:normal;line-height:125%;letter-spacing:0px;word-spacing:0px;fill:#000000;fill-opacity:1;stroke:none;font-family:Inconsolata;-inkscape-font-specification:Inconsolata Medium"
       id="text3781">
      <path
         d="m 107,112.36218 1.104,0 0.976,-2.928 3.152,0 1.104,2.912 1.168,0 -3.856,-10.144 -0.128,0 -3.52,10.16 m 4.992,-3.792 -2.704,0 1.296,-3.792 1.408,3.792"
         id="path3015"
         inkscape:connector-curvature="0" />
      <path
         d="m 115,112.36218 1.104,0 0.976,-2.928 3.152,0 1.104,2.912 1.168,0 -3.856,-10.144 -0.128,0 -3.52,10.16 m 4.992,-3.792 -2.704,0 1.296,-3.792 1.408,3.792"
         id="path3017"
         inkscape:connector-curvature="0" />
      <path
         d="m 123,112.36218 1.104,0 0.976,-2.928 3.152,0 1.104,2.912 1.168,0 -3.856,-10.144 -0.128,0 -3.52,10.16 m 4.992,-3.792 -2.704,0 1.296,-3.792 1.408,3.792"
         id="path3019"
         inkscape:connector-curvature="0" />
      <path
         d="m 131,112.36218 1.104,0 0.976,-2.928 3.152,0 1.104,2.912 1.168,0 -3.856,-10.144 -0.128,0 -3.52,10.16 m 4.992,-3.792 -2.704,0 1.296,-3.792 1.408,3.792"
         id="path3021"
         inkscape:connector-curvature="0" />
      <path
         d="m 139,112.36218 1.104,0 0.976,-2.928 3.152,0 1.104,2.912 1.168,0 -3.856,-10.144 -0.128,0 -3.52,10.16 m 4.992,-3.792 -2.704,0 1.296,-3.792 1.408,3.792"
         id="path3023"
         inkscape:connector-curvature="0" />
    </g>
  </g>
</svg>
